<mxfile host="app.diagrams.net" modified="2023-06-25T07:27:14.823Z" agent="Mozilla/5.0 (Windows NT 10.0; Win64; x64) AppleWebKit/537.36 (KHTML, like Gecko) Chrome/114.0.0.0 Safari/537.36" etag="GKMYIbG64gJJFAh-hkw-" version="21.5.0" type="github">
  <diagram name="PÃ¡gina-1" id="b5tq9pqoIiEbbDQnV4xs">
    <mxGraphModel dx="1660" dy="742" grid="1" gridSize="10" guides="1" tooltips="1" connect="1" arrows="1" fold="1" page="1" pageScale="1" pageWidth="827" pageHeight="1169" math="0" shadow="0">
      <root>
        <mxCell id="0" />
        <mxCell id="1" parent="0" />
        <mxCell id="zOtSkcu70AzR4tF0RRNw-2" value="frame" style="shape=umlFrame;whiteSpace=wrap;html=1;pointerEvents=0;" vertex="1" parent="1">
          <mxGeometry x="180" y="230" width="450" height="290" as="geometry" />
        </mxCell>
        <mxCell id="zOtSkcu70AzR4tF0RRNw-3" value="&amp;laquo;interface&amp;raquo;&lt;br&gt;&lt;b&gt;Name&lt;/b&gt;" style="html=1;whiteSpace=wrap;" vertex="1" parent="1">
          <mxGeometry x="350" y="100" width="110" height="50" as="geometry" />
        </mxCell>
      </root>
    </mxGraphModel>
  </diagram>
</mxfile>
